# xmcd
#
# Track frame offsets: 
#        150
#        17852
#        34595
#        54845
#        73170
#        97400
#        113967
#        136315
#        150035
#        167110
#        180842
#        196785
#        214762
#        227550
#        241722
#        254660
#        276545
#        292880
#        308375
#
# Disc length: 4317 seconds
#
# Revision: 1
# Processed by: cddbd v1.5.2PL0 Copyright (c) Steve Scherf et al.
# Submitted via: ExactAudioCopyFreeDBPlugin 1.0
#
DISCID=fe10db13
DTITLE=Various Artist - Rockin' At The Barn Vol 3
DYEAR=2001
DGENRE=Country
TTITLE0=Shelley King - The Highway
TTITLE1=Robert Jackson  - Gone In The Wind
TTITLE2=Enzendoh - Rain Rain Rain
TTITLE3=Louie Ortega And The Wild Juans  - Don't Be Mean To Me
TTITLE4=The Lonesome Trailers - We Stone Prophets (In Our Hometown)
TTITLE5=James Rider and The 420 Turnaround - Hit The Highway
TTITLE6=Barn Burners - Walk With You Baby
TTITLE7=Hanif - Eternity Will Last A Long Time
TTITLE8=Big Al - Buster The Line Dancing Dog
TTITLE9=Steve Hopkins - Livin' On The Brink
TTITLE10=Power Of Ten - Walk On By
TTITLE11=Carlton Collins - Rock Of Ages
TTITLE12=Chaz and The Motorbikes  - Jealous Again
TTITLE13=The Parlor Dogs - The Great Beyond
TTITLE14=Wild Bob Burgos and His Houserockers  - One Way Street
TTITLE15=The Mary Janes  - Baby Honey
TTITLE16=Eric Blakely - This Is Now
TTITLE17=The Boilers  - Hottest Thing In Town
TTITLE18=Trash Mavericks - Tattletail
EXTD=YEAR: 2001
EXTT0=
EXTT1=
EXTT2=
EXTT3=
EXTT4=
EXTT5=
EXTT6=
EXTT7=
EXTT8=
EXTT9=
EXTT10=
EXTT11=
EXTT12=
EXTT13=
EXTT14=
EXTT15=
EXTT16=
EXTT17=
EXTT18=
PLAYORDER=
